<mxfile host="Electron" modified="2023-08-30T21:31:09.807Z" agent="Mozilla/5.0 (Macintosh; Intel Mac OS X 10_15_7) AppleWebKit/537.36 (KHTML, like Gecko) draw.io/21.6.8 Chrome/114.0.5735.289 Electron/25.5.0 Safari/537.36" etag="0IGGcDxU9Y7MCJ_rfbFN" version="21.6.8" type="device">
  <diagram name="Page-1" id="RjgTiLcrliQaqMH1mf6J">
    <mxGraphModel dx="834" dy="833" grid="1" gridSize="10" guides="1" tooltips="1" connect="1" arrows="1" fold="1" page="1" pageScale="1" pageWidth="850" pageHeight="1100" math="0" shadow="0">
      <root>
        <mxCell id="0" />
        <mxCell id="1" parent="0" />
        <mxCell id="UdqTJDuxFoocJq7VgL6D-6" value="" style="shape=note;whiteSpace=wrap;html=1;backgroundOutline=1;darkOpacity=0.05;fontSize=11;fillColor=#ffe6cc;strokeColor=#d79b00;align=left;" vertex="1" parent="1">
          <mxGeometry x="200" y="170" width="380" height="220" as="geometry" />
        </mxCell>
        <mxCell id="UdqTJDuxFoocJq7VgL6D-1" value="" style="ellipse;fillColor=#000000;strokeColor=none;shadow=0;" vertex="1" parent="1">
          <mxGeometry x="320" y="30" width="30" height="30" as="geometry" />
        </mxCell>
        <mxCell id="UdqTJDuxFoocJq7VgL6D-5" style="edgeStyle=orthogonalEdgeStyle;rounded=0;orthogonalLoop=1;jettySize=auto;html=1;exitX=0.5;exitY=1;exitDx=0;exitDy=0;entryX=0.092;entryY=0.691;entryDx=0;entryDy=0;entryPerimeter=0;" edge="1" parent="1" source="UdqTJDuxFoocJq7VgL6D-2" target="UdqTJDuxFoocJq7VgL6D-4">
          <mxGeometry relative="1" as="geometry">
            <mxPoint x="335" y="140" as="targetPoint" />
          </mxGeometry>
        </mxCell>
        <mxCell id="UdqTJDuxFoocJq7VgL6D-2" value="Initialize&lt;br&gt;&lt;font style=&quot;font-size: 8px;&quot;&gt;(Set up working directory, etc)&lt;/font&gt;" style="html=1;align=center;verticalAlign=top;rounded=1;absoluteArcSize=1;arcSize=10;dashed=0;shadow=0;strokeColor=default;" vertex="1" parent="1">
          <mxGeometry x="265" y="80" width="140" height="40" as="geometry" />
        </mxCell>
        <mxCell id="UdqTJDuxFoocJq7VgL6D-3" style="edgeStyle=orthogonalEdgeStyle;rounded=0;orthogonalLoop=1;jettySize=auto;html=1;exitX=0.5;exitY=1;exitDx=0;exitDy=0;entryX=0.5;entryY=0;entryDx=0;entryDy=0;" edge="1" parent="1" source="UdqTJDuxFoocJq7VgL6D-1" target="UdqTJDuxFoocJq7VgL6D-2">
          <mxGeometry relative="1" as="geometry">
            <mxPoint x="270" y="50" as="sourcePoint" />
            <mxPoint x="270" y="70" as="targetPoint" />
          </mxGeometry>
        </mxCell>
        <mxCell id="UdqTJDuxFoocJq7VgL6D-15" style="edgeStyle=orthogonalEdgeStyle;rounded=0;orthogonalLoop=1;jettySize=auto;html=1;entryX=0.155;entryY=0.953;entryDx=0;entryDy=0;entryPerimeter=0;exitX=0.514;exitY=0.947;exitDx=0;exitDy=0;exitPerimeter=0;" edge="1" parent="1" source="UdqTJDuxFoocJq7VgL6D-4">
          <mxGeometry relative="1" as="geometry">
            <mxPoint x="240.56" y="144" as="sourcePoint" />
            <mxPoint x="240.0000000000001" y="398.495" as="targetPoint" />
            <Array as="points">
              <mxPoint x="240" y="153" />
            </Array>
          </mxGeometry>
        </mxCell>
        <mxCell id="UdqTJDuxFoocJq7VgL6D-17" value="No Job&lt;br&gt;&amp;nbsp;Environments&lt;br&gt;Defined" style="edgeLabel;html=1;align=center;verticalAlign=middle;resizable=0;points=[];" vertex="1" connectable="0" parent="UdqTJDuxFoocJq7VgL6D-15">
          <mxGeometry x="-0.7051" relative="1" as="geometry">
            <mxPoint x="-1" y="23" as="offset" />
          </mxGeometry>
        </mxCell>
        <mxCell id="UdqTJDuxFoocJq7VgL6D-28" style="edgeStyle=orthogonalEdgeStyle;rounded=0;orthogonalLoop=1;jettySize=auto;html=1;entryX=0.5;entryY=0;entryDx=0;entryDy=0;" edge="1" parent="1" source="UdqTJDuxFoocJq7VgL6D-4" target="UdqTJDuxFoocJq7VgL6D-19">
          <mxGeometry relative="1" as="geometry">
            <Array as="points">
              <mxPoint x="425" y="150" />
              <mxPoint x="425" y="150" />
            </Array>
          </mxGeometry>
        </mxCell>
        <mxCell id="UdqTJDuxFoocJq7VgL6D-30" value="Has Job Environments" style="edgeLabel;html=1;align=center;verticalAlign=middle;resizable=0;points=[];" vertex="1" connectable="0" parent="UdqTJDuxFoocJq7VgL6D-28">
          <mxGeometry x="-0.1378" y="-1" relative="1" as="geometry">
            <mxPoint as="offset" />
          </mxGeometry>
        </mxCell>
        <mxCell id="UdqTJDuxFoocJq7VgL6D-4" value="" style="html=1;points=[];perimeter=orthogonalPerimeter;fillColor=#000000;strokeColor=none;shadow=0;direction=south;" vertex="1" parent="1">
          <mxGeometry x="230" y="150" width="340" height="5" as="geometry" />
        </mxCell>
        <mxCell id="UdqTJDuxFoocJq7VgL6D-7" value="" style="html=1;points=[];perimeter=orthogonalPerimeter;fillColor=#000000;strokeColor=none;shadow=0;direction=south;" vertex="1" parent="1">
          <mxGeometry x="230" y="400" width="340" height="5" as="geometry" />
        </mxCell>
        <mxCell id="UdqTJDuxFoocJq7VgL6D-10" value="" style="shape=note;whiteSpace=wrap;html=1;backgroundOutline=1;darkOpacity=0.05;fontSize=11;fillColor=#ffe6cc;strokeColor=#d79b00;align=left;" vertex="1" parent="1">
          <mxGeometry x="200" y="670" width="375" height="210" as="geometry" />
        </mxCell>
        <mxCell id="UdqTJDuxFoocJq7VgL6D-19" value="For Each Job Environment &lt;br&gt;in Listed Order" style="rounded=0;whiteSpace=wrap;html=1;fontColor=#000000;labelPosition=center;verticalLabelPosition=middle;align=center;verticalAlign=top;fillColor=none;dashed=1;fontStyle=3" vertex="1" parent="1">
          <mxGeometry x="300" y="180" width="240" height="190" as="geometry" />
        </mxCell>
        <mxCell id="UdqTJDuxFoocJq7VgL6D-26" style="edgeStyle=orthogonalEdgeStyle;rounded=0;orthogonalLoop=1;jettySize=auto;html=1;entryX=0.253;entryY=0.428;entryDx=0;entryDy=0;entryPerimeter=0;" edge="1" parent="1" source="UdqTJDuxFoocJq7VgL6D-20" target="UdqTJDuxFoocJq7VgL6D-7">
          <mxGeometry relative="1" as="geometry" />
        </mxCell>
        <mxCell id="UdqTJDuxFoocJq7VgL6D-27" value="All Job Environments Entered" style="edgeLabel;html=1;align=center;verticalAlign=middle;resizable=0;points=[];" vertex="1" connectable="0" parent="UdqTJDuxFoocJq7VgL6D-26">
          <mxGeometry x="-0.0093" y="2" relative="1" as="geometry">
            <mxPoint x="-2" y="-4" as="offset" />
          </mxGeometry>
        </mxCell>
        <mxCell id="UdqTJDuxFoocJq7VgL6D-49" value="Failing to Enter&amp;nbsp;&lt;b style=&quot;font-style: italic;&quot;&gt;any&lt;/b&gt;&amp;nbsp;Environment means that the Session cannot be used to run Tasks" style="shape=note;size=20;whiteSpace=wrap;html=1;fontSize=11;fillColor=#fff2cc;strokeColor=#d6b656;align=left;" vertex="1" parent="1">
          <mxGeometry x="590" y="160" width="130" height="70" as="geometry" />
        </mxCell>
        <mxCell id="UdqTJDuxFoocJq7VgL6D-50" value="For Each Task to Run for the Step&lt;br&gt;in this Session" style="rounded=0;whiteSpace=wrap;html=1;fontColor=#000000;labelPosition=center;verticalLabelPosition=middle;align=center;verticalAlign=top;fillColor=none;dashed=1;fontStyle=3" vertex="1" parent="1">
          <mxGeometry x="240" y="680" width="300" height="180" as="geometry" />
        </mxCell>
        <mxCell id="UdqTJDuxFoocJq7VgL6D-78" style="edgeStyle=orthogonalEdgeStyle;rounded=0;orthogonalLoop=1;jettySize=auto;html=1;entryX=0.5;entryY=0;entryDx=0;entryDy=0;" edge="1" parent="1" source="UdqTJDuxFoocJq7VgL6D-51" target="UdqTJDuxFoocJq7VgL6D-52">
          <mxGeometry relative="1" as="geometry" />
        </mxCell>
        <mxCell id="UdqTJDuxFoocJq7VgL6D-121" style="edgeStyle=orthogonalEdgeStyle;rounded=0;orthogonalLoop=1;jettySize=auto;html=1;" edge="1" parent="1" source="UdqTJDuxFoocJq7VgL6D-51">
          <mxGeometry relative="1" as="geometry">
            <mxPoint x="600" y="744.9950000000001" as="targetPoint" />
          </mxGeometry>
        </mxCell>
        <mxCell id="UdqTJDuxFoocJq7VgL6D-125" value="Failed" style="edgeLabel;html=1;align=center;verticalAlign=middle;resizable=0;points=[];" vertex="1" connectable="0" parent="UdqTJDuxFoocJq7VgL6D-121">
          <mxGeometry x="-0.2935" y="-1" relative="1" as="geometry">
            <mxPoint x="-13" y="-16" as="offset" />
          </mxGeometry>
        </mxCell>
        <mxCell id="UdqTJDuxFoocJq7VgL6D-51" value="Write Step Script&#39;s&lt;br&gt;Embedded Files&lt;br&gt;to Working Directory" style="html=1;align=center;verticalAlign=top;rounded=1;absoluteArcSize=1;arcSize=10;dashed=0;shadow=0;strokeColor=default;" vertex="1" parent="1">
          <mxGeometry x="340" y="719.8100000000001" width="140" height="50.37" as="geometry" />
        </mxCell>
        <mxCell id="UdqTJDuxFoocJq7VgL6D-79" style="edgeStyle=orthogonalEdgeStyle;rounded=0;orthogonalLoop=1;jettySize=auto;html=1;entryX=-0.016;entryY=0.151;entryDx=0;entryDy=0;entryPerimeter=0;" edge="1" parent="1" source="UdqTJDuxFoocJq7VgL6D-52" target="UdqTJDuxFoocJq7VgL6D-74">
          <mxGeometry relative="1" as="geometry" />
        </mxCell>
        <mxCell id="UdqTJDuxFoocJq7VgL6D-122" style="edgeStyle=orthogonalEdgeStyle;rounded=0;orthogonalLoop=1;jettySize=auto;html=1;" edge="1" parent="1" source="UdqTJDuxFoocJq7VgL6D-52">
          <mxGeometry relative="1" as="geometry">
            <mxPoint x="600" y="810.1800000000001" as="targetPoint" />
          </mxGeometry>
        </mxCell>
        <mxCell id="UdqTJDuxFoocJq7VgL6D-126" value="Failed or&lt;br&gt;Canceled" style="edgeLabel;html=1;align=center;verticalAlign=middle;resizable=0;points=[];" vertex="1" connectable="0" parent="UdqTJDuxFoocJq7VgL6D-122">
          <mxGeometry x="-0.4419" relative="1" as="geometry">
            <mxPoint x="-4" y="-20" as="offset" />
          </mxGeometry>
        </mxCell>
        <mxCell id="UdqTJDuxFoocJq7VgL6D-52" value="Run Step Script&#39;s" style="html=1;align=center;verticalAlign=top;rounded=1;absoluteArcSize=1;arcSize=10;dashed=0;shadow=0;strokeColor=#82b366;fillColor=#d5e8d4;" vertex="1" parent="1">
          <mxGeometry x="340" y="790.1800000000001" width="140" height="40" as="geometry" />
        </mxCell>
        <mxCell id="UdqTJDuxFoocJq7VgL6D-21" style="edgeStyle=orthogonalEdgeStyle;rounded=0;orthogonalLoop=1;jettySize=auto;html=1;entryX=-0.114;entryY=0.414;entryDx=0;entryDy=0;entryPerimeter=0;" edge="1" parent="1" source="UdqTJDuxFoocJq7VgL6D-18" target="UdqTJDuxFoocJq7VgL6D-20">
          <mxGeometry relative="1" as="geometry" />
        </mxCell>
        <mxCell id="UdqTJDuxFoocJq7VgL6D-149" style="edgeStyle=orthogonalEdgeStyle;rounded=0;orthogonalLoop=1;jettySize=auto;html=1;" edge="1" parent="1" source="UdqTJDuxFoocJq7VgL6D-18">
          <mxGeometry relative="1" as="geometry">
            <mxPoint x="660" y="310" as="targetPoint" />
          </mxGeometry>
        </mxCell>
        <mxCell id="UdqTJDuxFoocJq7VgL6D-151" value="Failed or Canceled" style="edgeLabel;html=1;align=center;verticalAlign=middle;resizable=0;points=[];" vertex="1" connectable="0" parent="UdqTJDuxFoocJq7VgL6D-149">
          <mxGeometry x="-0.3727" y="2" relative="1" as="geometry">
            <mxPoint x="3" y="-8" as="offset" />
          </mxGeometry>
        </mxCell>
        <mxCell id="UdqTJDuxFoocJq7VgL6D-18" value="Run Environment&#39;s&amp;nbsp;&lt;br&gt;onEnter" style="html=1;align=center;verticalAlign=top;rounded=1;absoluteArcSize=1;arcSize=10;dashed=0;shadow=0;strokeColor=#82b366;fillColor=#d5e8d4;" vertex="1" parent="1">
          <mxGeometry x="370" y="290" width="140" height="40" as="geometry" />
        </mxCell>
        <mxCell id="UdqTJDuxFoocJq7VgL6D-24" style="edgeStyle=orthogonalEdgeStyle;rounded=0;orthogonalLoop=1;jettySize=auto;html=1;entryX=0;entryY=0.5;entryDx=0;entryDy=0;" edge="1" parent="1" source="UdqTJDuxFoocJq7VgL6D-20" target="UdqTJDuxFoocJq7VgL6D-53">
          <mxGeometry relative="1" as="geometry">
            <Array as="points">
              <mxPoint x="350" y="245" />
            </Array>
          </mxGeometry>
        </mxCell>
        <mxCell id="UdqTJDuxFoocJq7VgL6D-25" value="Next Job&lt;br&gt;Environment" style="edgeLabel;html=1;align=center;verticalAlign=middle;resizable=0;points=[];" vertex="1" connectable="0" parent="UdqTJDuxFoocJq7VgL6D-24">
          <mxGeometry x="0.0679" y="1" relative="1" as="geometry">
            <mxPoint x="-14" y="-3" as="offset" />
          </mxGeometry>
        </mxCell>
        <mxCell id="UdqTJDuxFoocJq7VgL6D-20" value="" style="html=1;points=[];perimeter=orthogonalPerimeter;fillColor=#000000;strokeColor=none;shadow=0;direction=south;" vertex="1" parent="1">
          <mxGeometry x="340" y="360" width="170" height="5" as="geometry" />
        </mxCell>
        <mxCell id="UdqTJDuxFoocJq7VgL6D-54" style="edgeStyle=orthogonalEdgeStyle;rounded=0;orthogonalLoop=1;jettySize=auto;html=1;exitX=0.5;exitY=1;exitDx=0;exitDy=0;entryX=0.5;entryY=0;entryDx=0;entryDy=0;" edge="1" parent="1" source="UdqTJDuxFoocJq7VgL6D-53" target="UdqTJDuxFoocJq7VgL6D-18">
          <mxGeometry relative="1" as="geometry" />
        </mxCell>
        <mxCell id="UdqTJDuxFoocJq7VgL6D-148" style="edgeStyle=orthogonalEdgeStyle;rounded=0;orthogonalLoop=1;jettySize=auto;html=1;entryX=-0.36;entryY=0.066;entryDx=0;entryDy=0;entryPerimeter=0;" edge="1" parent="1" source="UdqTJDuxFoocJq7VgL6D-53" target="UdqTJDuxFoocJq7VgL6D-107">
          <mxGeometry relative="1" as="geometry">
            <Array as="points">
              <mxPoint x="660" y="245" />
              <mxPoint x="660" y="705" />
            </Array>
          </mxGeometry>
        </mxCell>
        <mxCell id="UdqTJDuxFoocJq7VgL6D-150" value="Failed" style="edgeLabel;html=1;align=center;verticalAlign=middle;resizable=0;points=[];" vertex="1" connectable="0" parent="UdqTJDuxFoocJq7VgL6D-148">
          <mxGeometry x="-0.9356" y="1" relative="1" as="geometry">
            <mxPoint x="-5" y="-9" as="offset" />
          </mxGeometry>
        </mxCell>
        <mxCell id="UdqTJDuxFoocJq7VgL6D-53" value="Write Environment&#39;s&lt;br&gt;Embedded Files&lt;br&gt;to Working Directory" style="html=1;align=center;verticalAlign=top;rounded=1;absoluteArcSize=1;arcSize=10;dashed=0;shadow=0;strokeColor=default;" vertex="1" parent="1">
          <mxGeometry x="370" y="220" width="140" height="50" as="geometry" />
        </mxCell>
        <mxCell id="UdqTJDuxFoocJq7VgL6D-55" value="" style="shape=note;whiteSpace=wrap;html=1;backgroundOutline=1;darkOpacity=0.05;fontSize=11;fillColor=#ffe6cc;strokeColor=#d79b00;align=left;" vertex="1" parent="1">
          <mxGeometry x="200" y="420" width="380" height="220" as="geometry" />
        </mxCell>
        <mxCell id="UdqTJDuxFoocJq7VgL6D-72" style="edgeStyle=orthogonalEdgeStyle;rounded=0;orthogonalLoop=1;jettySize=auto;html=1;entryX=0.5;entryY=0;entryDx=0;entryDy=0;" edge="1" parent="1" source="UdqTJDuxFoocJq7VgL6D-57" target="UdqTJDuxFoocJq7VgL6D-50">
          <mxGeometry relative="1" as="geometry">
            <Array as="points">
              <mxPoint x="390" y="680" />
              <mxPoint x="390" y="680" />
            </Array>
          </mxGeometry>
        </mxCell>
        <mxCell id="UdqTJDuxFoocJq7VgL6D-57" value="" style="html=1;points=[];perimeter=orthogonalPerimeter;fillColor=#000000;strokeColor=none;shadow=0;direction=south;" vertex="1" parent="1">
          <mxGeometry x="230" y="650" width="340" height="5" as="geometry" />
        </mxCell>
        <mxCell id="UdqTJDuxFoocJq7VgL6D-58" value="For Each Step Environment &lt;br&gt;in Listed Order" style="rounded=0;whiteSpace=wrap;html=1;fontColor=#000000;labelPosition=center;verticalLabelPosition=middle;align=center;verticalAlign=top;fillColor=none;dashed=1;fontStyle=3" vertex="1" parent="1">
          <mxGeometry x="300" y="430" width="240" height="190" as="geometry" />
        </mxCell>
        <mxCell id="UdqTJDuxFoocJq7VgL6D-59" style="edgeStyle=orthogonalEdgeStyle;rounded=0;orthogonalLoop=1;jettySize=auto;html=1;" edge="1" parent="1" source="UdqTJDuxFoocJq7VgL6D-66">
          <mxGeometry relative="1" as="geometry">
            <mxPoint x="425" y="650" as="targetPoint" />
            <Array as="points">
              <mxPoint x="425" y="649" />
            </Array>
          </mxGeometry>
        </mxCell>
        <mxCell id="UdqTJDuxFoocJq7VgL6D-60" value="All Step Environments Entered" style="edgeLabel;html=1;align=center;verticalAlign=middle;resizable=0;points=[];" vertex="1" connectable="0" parent="UdqTJDuxFoocJq7VgL6D-59">
          <mxGeometry x="-0.0093" y="2" relative="1" as="geometry">
            <mxPoint x="-2" y="-4" as="offset" />
          </mxGeometry>
        </mxCell>
        <mxCell id="UdqTJDuxFoocJq7VgL6D-61" style="edgeStyle=orthogonalEdgeStyle;rounded=0;orthogonalLoop=1;jettySize=auto;html=1;entryX=-0.114;entryY=0.414;entryDx=0;entryDy=0;entryPerimeter=0;" edge="1" parent="1" source="UdqTJDuxFoocJq7VgL6D-63" target="UdqTJDuxFoocJq7VgL6D-66">
          <mxGeometry relative="1" as="geometry" />
        </mxCell>
        <mxCell id="UdqTJDuxFoocJq7VgL6D-120" style="edgeStyle=orthogonalEdgeStyle;rounded=0;orthogonalLoop=1;jettySize=auto;html=1;" edge="1" parent="1" source="UdqTJDuxFoocJq7VgL6D-63">
          <mxGeometry relative="1" as="geometry">
            <mxPoint x="600" y="560" as="targetPoint" />
          </mxGeometry>
        </mxCell>
        <mxCell id="UdqTJDuxFoocJq7VgL6D-124" value="Failed or &lt;br&gt;Canceled" style="edgeLabel;html=1;align=center;verticalAlign=middle;resizable=0;points=[];" vertex="1" connectable="0" parent="UdqTJDuxFoocJq7VgL6D-120">
          <mxGeometry x="-0.5805" y="1" relative="1" as="geometry">
            <mxPoint x="17" y="-19" as="offset" />
          </mxGeometry>
        </mxCell>
        <mxCell id="UdqTJDuxFoocJq7VgL6D-63" value="Run Environment&#39;s&amp;nbsp;&lt;br&gt;onEnter" style="html=1;align=center;verticalAlign=top;rounded=1;absoluteArcSize=1;arcSize=10;dashed=0;shadow=0;strokeColor=#82b366;fillColor=#d5e8d4;" vertex="1" parent="1">
          <mxGeometry x="375" y="540" width="140" height="40" as="geometry" />
        </mxCell>
        <mxCell id="UdqTJDuxFoocJq7VgL6D-64" style="edgeStyle=orthogonalEdgeStyle;rounded=0;orthogonalLoop=1;jettySize=auto;html=1;entryX=0;entryY=0.5;entryDx=0;entryDy=0;" edge="1" parent="1" source="UdqTJDuxFoocJq7VgL6D-66" target="UdqTJDuxFoocJq7VgL6D-68">
          <mxGeometry relative="1" as="geometry">
            <Array as="points">
              <mxPoint x="355" y="495" />
            </Array>
          </mxGeometry>
        </mxCell>
        <mxCell id="UdqTJDuxFoocJq7VgL6D-65" value="Next Step&lt;br&gt;Environment" style="edgeLabel;html=1;align=center;verticalAlign=middle;resizable=0;points=[];" vertex="1" connectable="0" parent="UdqTJDuxFoocJq7VgL6D-64">
          <mxGeometry x="0.0679" y="1" relative="1" as="geometry">
            <mxPoint x="-14" y="-3" as="offset" />
          </mxGeometry>
        </mxCell>
        <mxCell id="UdqTJDuxFoocJq7VgL6D-66" value="" style="html=1;points=[];perimeter=orthogonalPerimeter;fillColor=#000000;strokeColor=none;shadow=0;direction=south;" vertex="1" parent="1">
          <mxGeometry x="345" y="610" width="170" height="5" as="geometry" />
        </mxCell>
        <mxCell id="UdqTJDuxFoocJq7VgL6D-76" style="edgeStyle=orthogonalEdgeStyle;rounded=0;orthogonalLoop=1;jettySize=auto;html=1;entryX=0.5;entryY=0;entryDx=0;entryDy=0;" edge="1" parent="1" source="UdqTJDuxFoocJq7VgL6D-68" target="UdqTJDuxFoocJq7VgL6D-63">
          <mxGeometry relative="1" as="geometry" />
        </mxCell>
        <mxCell id="UdqTJDuxFoocJq7VgL6D-119" style="edgeStyle=orthogonalEdgeStyle;rounded=0;orthogonalLoop=1;jettySize=auto;html=1;entryX=-0.455;entryY=0.074;entryDx=0;entryDy=0;entryPerimeter=0;" edge="1" parent="1" source="UdqTJDuxFoocJq7VgL6D-68" target="UdqTJDuxFoocJq7VgL6D-83">
          <mxGeometry relative="1" as="geometry">
            <Array as="points">
              <mxPoint x="600" y="495" />
              <mxPoint x="600" y="705" />
            </Array>
          </mxGeometry>
        </mxCell>
        <mxCell id="UdqTJDuxFoocJq7VgL6D-123" value="Failed" style="edgeLabel;html=1;align=center;verticalAlign=middle;resizable=0;points=[];" vertex="1" connectable="0" parent="UdqTJDuxFoocJq7VgL6D-119">
          <mxGeometry x="-0.8672" y="1" relative="1" as="geometry">
            <mxPoint x="-2" y="-14" as="offset" />
          </mxGeometry>
        </mxCell>
        <mxCell id="UdqTJDuxFoocJq7VgL6D-68" value="Write Environment&#39;s&lt;br&gt;Embedded Files&lt;br&gt;to Working Directory" style="html=1;align=center;verticalAlign=top;rounded=1;absoluteArcSize=1;arcSize=10;dashed=0;shadow=0;strokeColor=default;" vertex="1" parent="1">
          <mxGeometry x="375" y="470" width="140" height="50" as="geometry" />
        </mxCell>
        <mxCell id="UdqTJDuxFoocJq7VgL6D-47" style="edgeStyle=orthogonalEdgeStyle;rounded=0;orthogonalLoop=1;jettySize=auto;html=1;entryX=0.502;entryY=-0.01;entryDx=0;entryDy=0;entryPerimeter=0;" edge="1" parent="1" source="UdqTJDuxFoocJq7VgL6D-7" target="UdqTJDuxFoocJq7VgL6D-58">
          <mxGeometry relative="1" as="geometry">
            <mxPoint x="425" y="435" as="targetPoint" />
            <Array as="points">
              <mxPoint x="420" y="425" />
              <mxPoint x="421" y="425" />
            </Array>
          </mxGeometry>
        </mxCell>
        <mxCell id="UdqTJDuxFoocJq7VgL6D-70" style="edgeStyle=orthogonalEdgeStyle;rounded=0;orthogonalLoop=1;jettySize=auto;html=1;" edge="1" parent="1" source="UdqTJDuxFoocJq7VgL6D-7">
          <mxGeometry relative="1" as="geometry">
            <mxPoint x="240" y="650" as="targetPoint" />
            <Array as="points">
              <mxPoint x="240" y="650" />
            </Array>
          </mxGeometry>
        </mxCell>
        <mxCell id="UdqTJDuxFoocJq7VgL6D-71" value="No Step&lt;br&gt;Environments&lt;br&gt;Defined" style="edgeLabel;html=1;align=center;verticalAlign=middle;resizable=0;points=[];" vertex="1" connectable="0" parent="UdqTJDuxFoocJq7VgL6D-70">
          <mxGeometry x="-0.3955" y="-2" relative="1" as="geometry">
            <mxPoint x="7" y="-19" as="offset" />
          </mxGeometry>
        </mxCell>
        <mxCell id="UdqTJDuxFoocJq7VgL6D-73" value="Start Session" style="text;html=1;align=center;verticalAlign=middle;resizable=0;points=[];autosize=1;strokeColor=none;fillColor=none;" vertex="1" parent="1">
          <mxGeometry x="345" y="30" width="90" height="30" as="geometry" />
        </mxCell>
        <mxCell id="UdqTJDuxFoocJq7VgL6D-81" style="edgeStyle=orthogonalEdgeStyle;rounded=0;orthogonalLoop=1;jettySize=auto;html=1;entryX=0;entryY=0.5;entryDx=0;entryDy=0;" edge="1" parent="1" source="UdqTJDuxFoocJq7VgL6D-74" target="UdqTJDuxFoocJq7VgL6D-51">
          <mxGeometry relative="1" as="geometry">
            <Array as="points">
              <mxPoint x="290" y="745" />
            </Array>
          </mxGeometry>
        </mxCell>
        <mxCell id="UdqTJDuxFoocJq7VgL6D-82" value="Next&lt;br&gt;Task" style="edgeLabel;html=1;align=center;verticalAlign=middle;resizable=0;points=[];" vertex="1" connectable="0" parent="UdqTJDuxFoocJq7VgL6D-81">
          <mxGeometry x="-0.251" y="2" relative="1" as="geometry">
            <mxPoint x="-18" y="-2" as="offset" />
          </mxGeometry>
        </mxCell>
        <mxCell id="UdqTJDuxFoocJq7VgL6D-84" style="edgeStyle=orthogonalEdgeStyle;rounded=0;orthogonalLoop=1;jettySize=auto;html=1;entryX=0.15;entryY=0.701;entryDx=0;entryDy=0;entryPerimeter=0;" edge="1" parent="1" source="UdqTJDuxFoocJq7VgL6D-74" target="UdqTJDuxFoocJq7VgL6D-83">
          <mxGeometry relative="1" as="geometry">
            <Array as="points" />
          </mxGeometry>
        </mxCell>
        <mxCell id="UdqTJDuxFoocJq7VgL6D-74" value="" style="html=1;points=[];perimeter=orthogonalPerimeter;fillColor=#000000;strokeColor=none;shadow=0;direction=south;" vertex="1" parent="1">
          <mxGeometry x="265" y="850" width="170" height="5" as="geometry" />
        </mxCell>
        <mxCell id="UdqTJDuxFoocJq7VgL6D-83" value="" style="html=1;points=[];perimeter=orthogonalPerimeter;fillColor=#000000;strokeColor=none;shadow=0;direction=south;" vertex="1" parent="1">
          <mxGeometry x="230" y="890" width="400" height="5" as="geometry" />
        </mxCell>
        <mxCell id="UdqTJDuxFoocJq7VgL6D-96" value="" style="shape=note;whiteSpace=wrap;html=1;backgroundOutline=1;darkOpacity=0.05;fontSize=11;fillColor=#ffe6cc;strokeColor=#d79b00;align=left;" vertex="1" parent="1">
          <mxGeometry x="200" y="910" width="430" height="220" as="geometry" />
        </mxCell>
        <mxCell id="UdqTJDuxFoocJq7VgL6D-97" value="For Each Step Environment Entered,&lt;br&gt;Successfully or Not, in Reverse Order." style="rounded=0;whiteSpace=wrap;html=1;fontColor=#000000;labelPosition=center;verticalLabelPosition=middle;align=center;verticalAlign=top;fillColor=none;dashed=1;fontStyle=3" vertex="1" parent="1">
          <mxGeometry x="300" y="920" width="300" height="190" as="geometry" />
        </mxCell>
        <mxCell id="UdqTJDuxFoocJq7VgL6D-99" style="edgeStyle=orthogonalEdgeStyle;rounded=0;orthogonalLoop=1;jettySize=auto;html=1;entryX=0.252;entryY=0.574;entryDx=0;entryDy=0;entryPerimeter=0;" edge="1" parent="1" source="UdqTJDuxFoocJq7VgL6D-100" target="UdqTJDuxFoocJq7VgL6D-103">
          <mxGeometry relative="1" as="geometry" />
        </mxCell>
        <mxCell id="UdqTJDuxFoocJq7VgL6D-129" style="edgeStyle=orthogonalEdgeStyle;rounded=0;orthogonalLoop=1;jettySize=auto;html=1;" edge="1" parent="1">
          <mxGeometry relative="1" as="geometry">
            <mxPoint x="570" y="1049.99" as="targetPoint" />
            <mxPoint x="515" y="1050.0033333333333" as="sourcePoint" />
          </mxGeometry>
        </mxCell>
        <mxCell id="UdqTJDuxFoocJq7VgL6D-130" value="Failed or&lt;br&gt;Canceled" style="edgeLabel;html=1;align=center;verticalAlign=middle;resizable=0;points=[];" vertex="1" connectable="0" parent="UdqTJDuxFoocJq7VgL6D-129">
          <mxGeometry x="-0.0938" relative="1" as="geometry">
            <mxPoint x="-2" y="-20" as="offset" />
          </mxGeometry>
        </mxCell>
        <mxCell id="UdqTJDuxFoocJq7VgL6D-100" value="Run Environment&#39;s&amp;nbsp;&lt;br&gt;onExit" style="html=1;align=center;verticalAlign=top;rounded=1;absoluteArcSize=1;arcSize=10;dashed=0;shadow=0;strokeColor=#82b366;fillColor=#d5e8d4;" vertex="1" parent="1">
          <mxGeometry x="375" y="1030" width="140" height="40" as="geometry" />
        </mxCell>
        <mxCell id="UdqTJDuxFoocJq7VgL6D-101" style="edgeStyle=orthogonalEdgeStyle;rounded=0;orthogonalLoop=1;jettySize=auto;html=1;entryX=0;entryY=0.5;entryDx=0;entryDy=0;" edge="1" parent="1" source="UdqTJDuxFoocJq7VgL6D-103" target="UdqTJDuxFoocJq7VgL6D-105">
          <mxGeometry relative="1" as="geometry">
            <Array as="points">
              <mxPoint x="355" y="985" />
            </Array>
          </mxGeometry>
        </mxCell>
        <mxCell id="UdqTJDuxFoocJq7VgL6D-102" value="Next Step&lt;br&gt;Environment" style="edgeLabel;html=1;align=center;verticalAlign=middle;resizable=0;points=[];" vertex="1" connectable="0" parent="UdqTJDuxFoocJq7VgL6D-101">
          <mxGeometry x="0.0679" y="1" relative="1" as="geometry">
            <mxPoint x="-14" y="-3" as="offset" />
          </mxGeometry>
        </mxCell>
        <mxCell id="UdqTJDuxFoocJq7VgL6D-152" style="edgeStyle=orthogonalEdgeStyle;rounded=0;orthogonalLoop=1;jettySize=auto;html=1;entryX=-0.175;entryY=0.491;entryDx=0;entryDy=0;entryPerimeter=0;" edge="1" parent="1" source="UdqTJDuxFoocJq7VgL6D-103" target="UdqTJDuxFoocJq7VgL6D-107">
          <mxGeometry relative="1" as="geometry" />
        </mxCell>
        <mxCell id="UdqTJDuxFoocJq7VgL6D-153" value="All Step Environments Exited" style="edgeLabel;html=1;align=center;verticalAlign=middle;resizable=0;points=[];" vertex="1" connectable="0" parent="UdqTJDuxFoocJq7VgL6D-152">
          <mxGeometry x="-0.1449" relative="1" as="geometry">
            <mxPoint as="offset" />
          </mxGeometry>
        </mxCell>
        <mxCell id="UdqTJDuxFoocJq7VgL6D-103" value="" style="html=1;points=[];perimeter=orthogonalPerimeter;fillColor=#000000;strokeColor=none;shadow=0;direction=south;" vertex="1" parent="1">
          <mxGeometry x="345" y="1100" width="235" height="5" as="geometry" />
        </mxCell>
        <mxCell id="UdqTJDuxFoocJq7VgL6D-104" style="edgeStyle=orthogonalEdgeStyle;rounded=0;orthogonalLoop=1;jettySize=auto;html=1;entryX=0.5;entryY=0;entryDx=0;entryDy=0;" edge="1" parent="1" source="UdqTJDuxFoocJq7VgL6D-105" target="UdqTJDuxFoocJq7VgL6D-100">
          <mxGeometry relative="1" as="geometry" />
        </mxCell>
        <mxCell id="UdqTJDuxFoocJq7VgL6D-127" style="edgeStyle=orthogonalEdgeStyle;rounded=0;orthogonalLoop=1;jettySize=auto;html=1;entryX=-0.27;entryY=0.035;entryDx=0;entryDy=0;entryPerimeter=0;" edge="1" parent="1" source="UdqTJDuxFoocJq7VgL6D-105" target="UdqTJDuxFoocJq7VgL6D-103">
          <mxGeometry relative="1" as="geometry">
            <Array as="points">
              <mxPoint x="570" y="985" />
              <mxPoint x="570" y="1100" />
              <mxPoint x="572" y="1100" />
            </Array>
          </mxGeometry>
        </mxCell>
        <mxCell id="UdqTJDuxFoocJq7VgL6D-128" value="Failed" style="edgeLabel;html=1;align=center;verticalAlign=middle;resizable=0;points=[];" vertex="1" connectable="0" parent="UdqTJDuxFoocJq7VgL6D-127">
          <mxGeometry x="-0.7888" y="1" relative="1" as="geometry">
            <mxPoint x="7" y="-14" as="offset" />
          </mxGeometry>
        </mxCell>
        <mxCell id="UdqTJDuxFoocJq7VgL6D-105" value="Write Environment&#39;s&lt;br&gt;Embedded Files&lt;br&gt;to Working Directory" style="html=1;align=center;verticalAlign=top;rounded=1;absoluteArcSize=1;arcSize=10;dashed=0;shadow=0;strokeColor=default;" vertex="1" parent="1">
          <mxGeometry x="375" y="960" width="140" height="50" as="geometry" />
        </mxCell>
        <mxCell id="UdqTJDuxFoocJq7VgL6D-107" value="" style="html=1;points=[];perimeter=orthogonalPerimeter;fillColor=#000000;strokeColor=none;shadow=0;direction=south;" vertex="1" parent="1">
          <mxGeometry x="227.5" y="1140" width="462.5" height="5" as="geometry" />
        </mxCell>
        <mxCell id="UdqTJDuxFoocJq7VgL6D-131" style="edgeStyle=orthogonalEdgeStyle;rounded=0;orthogonalLoop=1;jettySize=auto;html=1;entryX=0.08;entryY=0.929;entryDx=0;entryDy=0;entryPerimeter=0;" edge="1" parent="1" source="UdqTJDuxFoocJq7VgL6D-83" target="UdqTJDuxFoocJq7VgL6D-107">
          <mxGeometry relative="1" as="geometry">
            <Array as="points">
              <mxPoint x="260" y="1018" />
            </Array>
          </mxGeometry>
        </mxCell>
        <mxCell id="UdqTJDuxFoocJq7VgL6D-132" value="No Step&lt;br&gt;Environments&lt;br&gt;Defined" style="edgeLabel;html=1;align=center;verticalAlign=middle;resizable=0;points=[];" vertex="1" connectable="0" parent="UdqTJDuxFoocJq7VgL6D-131">
          <mxGeometry x="-0.3562" y="-1" relative="1" as="geometry">
            <mxPoint x="-9" y="-14" as="offset" />
          </mxGeometry>
        </mxCell>
        <mxCell id="UdqTJDuxFoocJq7VgL6D-133" value="" style="shape=note;whiteSpace=wrap;html=1;backgroundOutline=1;darkOpacity=0.05;fontSize=11;fillColor=#ffe6cc;strokeColor=#d79b00;align=left;" vertex="1" parent="1">
          <mxGeometry x="200" y="1160" width="430" height="220" as="geometry" />
        </mxCell>
        <mxCell id="UdqTJDuxFoocJq7VgL6D-134" value="For Each Job Environment Entered,&lt;br&gt;Successfully or Not, in Reverse Order." style="rounded=0;whiteSpace=wrap;html=1;fontColor=#000000;labelPosition=center;verticalLabelPosition=middle;align=center;verticalAlign=top;fillColor=none;dashed=1;fontStyle=3" vertex="1" parent="1">
          <mxGeometry x="300" y="1170" width="300" height="190" as="geometry" />
        </mxCell>
        <mxCell id="UdqTJDuxFoocJq7VgL6D-136" style="edgeStyle=orthogonalEdgeStyle;rounded=0;orthogonalLoop=1;jettySize=auto;html=1;entryX=0.252;entryY=0.574;entryDx=0;entryDy=0;entryPerimeter=0;" edge="1" parent="1" source="UdqTJDuxFoocJq7VgL6D-139" target="UdqTJDuxFoocJq7VgL6D-142">
          <mxGeometry relative="1" as="geometry" />
        </mxCell>
        <mxCell id="UdqTJDuxFoocJq7VgL6D-137" style="edgeStyle=orthogonalEdgeStyle;rounded=0;orthogonalLoop=1;jettySize=auto;html=1;" edge="1" parent="1">
          <mxGeometry relative="1" as="geometry">
            <mxPoint x="570" y="1299.99" as="targetPoint" />
            <mxPoint x="515" y="1300.0033333333333" as="sourcePoint" />
          </mxGeometry>
        </mxCell>
        <mxCell id="UdqTJDuxFoocJq7VgL6D-138" value="Failed or&lt;br&gt;Canceled" style="edgeLabel;html=1;align=center;verticalAlign=middle;resizable=0;points=[];" vertex="1" connectable="0" parent="UdqTJDuxFoocJq7VgL6D-137">
          <mxGeometry x="-0.0938" relative="1" as="geometry">
            <mxPoint x="-2" y="-20" as="offset" />
          </mxGeometry>
        </mxCell>
        <mxCell id="UdqTJDuxFoocJq7VgL6D-139" value="Run Environment&#39;s&amp;nbsp;&lt;br&gt;onExit" style="html=1;align=center;verticalAlign=top;rounded=1;absoluteArcSize=1;arcSize=10;dashed=0;shadow=0;strokeColor=#82b366;fillColor=#d5e8d4;" vertex="1" parent="1">
          <mxGeometry x="375" y="1280" width="140" height="40" as="geometry" />
        </mxCell>
        <mxCell id="UdqTJDuxFoocJq7VgL6D-140" style="edgeStyle=orthogonalEdgeStyle;rounded=0;orthogonalLoop=1;jettySize=auto;html=1;entryX=0;entryY=0.5;entryDx=0;entryDy=0;" edge="1" parent="1" source="UdqTJDuxFoocJq7VgL6D-142" target="UdqTJDuxFoocJq7VgL6D-146">
          <mxGeometry relative="1" as="geometry">
            <Array as="points">
              <mxPoint x="355" y="1235" />
            </Array>
          </mxGeometry>
        </mxCell>
        <mxCell id="UdqTJDuxFoocJq7VgL6D-141" value="Next Job&lt;br&gt;Environment" style="edgeLabel;html=1;align=center;verticalAlign=middle;resizable=0;points=[];" vertex="1" connectable="0" parent="UdqTJDuxFoocJq7VgL6D-140">
          <mxGeometry x="0.0679" y="1" relative="1" as="geometry">
            <mxPoint x="-14" y="-3" as="offset" />
          </mxGeometry>
        </mxCell>
        <mxCell id="UdqTJDuxFoocJq7VgL6D-157" style="edgeStyle=orthogonalEdgeStyle;rounded=0;orthogonalLoop=1;jettySize=auto;html=1;entryX=0.216;entryY=0.316;entryDx=0;entryDy=0;entryPerimeter=0;" edge="1" parent="1" source="UdqTJDuxFoocJq7VgL6D-142" target="UdqTJDuxFoocJq7VgL6D-154">
          <mxGeometry relative="1" as="geometry" />
        </mxCell>
        <mxCell id="UdqTJDuxFoocJq7VgL6D-158" value="All Job Environments Exited" style="edgeLabel;html=1;align=center;verticalAlign=middle;resizable=0;points=[];" vertex="1" connectable="0" parent="UdqTJDuxFoocJq7VgL6D-157">
          <mxGeometry x="-0.2307" y="-2" relative="1" as="geometry">
            <mxPoint y="1" as="offset" />
          </mxGeometry>
        </mxCell>
        <mxCell id="UdqTJDuxFoocJq7VgL6D-142" value="" style="html=1;points=[];perimeter=orthogonalPerimeter;fillColor=#000000;strokeColor=none;shadow=0;direction=south;" vertex="1" parent="1">
          <mxGeometry x="345" y="1350" width="235" height="5" as="geometry" />
        </mxCell>
        <mxCell id="UdqTJDuxFoocJq7VgL6D-143" style="edgeStyle=orthogonalEdgeStyle;rounded=0;orthogonalLoop=1;jettySize=auto;html=1;entryX=0.5;entryY=0;entryDx=0;entryDy=0;" edge="1" parent="1" source="UdqTJDuxFoocJq7VgL6D-146" target="UdqTJDuxFoocJq7VgL6D-139">
          <mxGeometry relative="1" as="geometry" />
        </mxCell>
        <mxCell id="UdqTJDuxFoocJq7VgL6D-144" style="edgeStyle=orthogonalEdgeStyle;rounded=0;orthogonalLoop=1;jettySize=auto;html=1;entryX=-0.27;entryY=0.035;entryDx=0;entryDy=0;entryPerimeter=0;" edge="1" parent="1" source="UdqTJDuxFoocJq7VgL6D-146" target="UdqTJDuxFoocJq7VgL6D-142">
          <mxGeometry relative="1" as="geometry">
            <Array as="points">
              <mxPoint x="570" y="1235" />
              <mxPoint x="570" y="1350" />
              <mxPoint x="572" y="1350" />
            </Array>
          </mxGeometry>
        </mxCell>
        <mxCell id="UdqTJDuxFoocJq7VgL6D-145" value="Failed" style="edgeLabel;html=1;align=center;verticalAlign=middle;resizable=0;points=[];" vertex="1" connectable="0" parent="UdqTJDuxFoocJq7VgL6D-144">
          <mxGeometry x="-0.7888" y="1" relative="1" as="geometry">
            <mxPoint x="7" y="-14" as="offset" />
          </mxGeometry>
        </mxCell>
        <mxCell id="UdqTJDuxFoocJq7VgL6D-146" value="Write Environment&#39;s&lt;br&gt;Embedded Files&lt;br&gt;to Working Directory" style="html=1;align=center;verticalAlign=top;rounded=1;absoluteArcSize=1;arcSize=10;dashed=0;shadow=0;strokeColor=default;" vertex="1" parent="1">
          <mxGeometry x="375" y="1210" width="140" height="50" as="geometry" />
        </mxCell>
        <mxCell id="UdqTJDuxFoocJq7VgL6D-162" style="edgeStyle=orthogonalEdgeStyle;rounded=0;orthogonalLoop=1;jettySize=auto;html=1;entryX=0.5;entryY=0;entryDx=0;entryDy=0;" edge="1" parent="1" source="UdqTJDuxFoocJq7VgL6D-154" target="UdqTJDuxFoocJq7VgL6D-161">
          <mxGeometry relative="1" as="geometry" />
        </mxCell>
        <mxCell id="UdqTJDuxFoocJq7VgL6D-154" value="" style="html=1;points=[];perimeter=orthogonalPerimeter;fillColor=#000000;strokeColor=none;shadow=0;direction=south;" vertex="1" parent="1">
          <mxGeometry x="230" y="1390" width="340" height="5" as="geometry" />
        </mxCell>
        <mxCell id="UdqTJDuxFoocJq7VgL6D-155" style="edgeStyle=orthogonalEdgeStyle;rounded=0;orthogonalLoop=1;jettySize=auto;html=1;entryX=0.193;entryY=0.91;entryDx=0;entryDy=0;entryPerimeter=0;" edge="1" parent="1" source="UdqTJDuxFoocJq7VgL6D-107" target="UdqTJDuxFoocJq7VgL6D-154">
          <mxGeometry relative="1" as="geometry">
            <Array as="points">
              <mxPoint x="260" y="1268" />
              <mxPoint x="261" y="1268" />
            </Array>
          </mxGeometry>
        </mxCell>
        <mxCell id="UdqTJDuxFoocJq7VgL6D-156" value="No Job&lt;br&gt;Environments&lt;br&gt;Defined" style="edgeLabel;html=1;align=center;verticalAlign=middle;resizable=0;points=[];" vertex="1" connectable="0" parent="UdqTJDuxFoocJq7VgL6D-155">
          <mxGeometry x="-0.5012" relative="1" as="geometry">
            <mxPoint as="offset" />
          </mxGeometry>
        </mxCell>
        <mxCell id="UdqTJDuxFoocJq7VgL6D-159" style="edgeStyle=orthogonalEdgeStyle;rounded=0;orthogonalLoop=1;jettySize=auto;html=1;entryX=0.5;entryY=0;entryDx=0;entryDy=0;" edge="1" parent="1" source="UdqTJDuxFoocJq7VgL6D-83" target="UdqTJDuxFoocJq7VgL6D-97">
          <mxGeometry relative="1" as="geometry">
            <Array as="points">
              <mxPoint x="450" y="910" />
              <mxPoint x="450" y="910" />
            </Array>
          </mxGeometry>
        </mxCell>
        <mxCell id="UdqTJDuxFoocJq7VgL6D-160" style="edgeStyle=orthogonalEdgeStyle;rounded=0;orthogonalLoop=1;jettySize=auto;html=1;entryX=0.5;entryY=0;entryDx=0;entryDy=0;" edge="1" parent="1" source="UdqTJDuxFoocJq7VgL6D-107" target="UdqTJDuxFoocJq7VgL6D-134">
          <mxGeometry relative="1" as="geometry">
            <Array as="points">
              <mxPoint x="450" y="1160" />
              <mxPoint x="450" y="1160" />
            </Array>
          </mxGeometry>
        </mxCell>
        <mxCell id="UdqTJDuxFoocJq7VgL6D-164" style="edgeStyle=orthogonalEdgeStyle;rounded=0;orthogonalLoop=1;jettySize=auto;html=1;entryX=0.5;entryY=0;entryDx=0;entryDy=0;" edge="1" parent="1" source="UdqTJDuxFoocJq7VgL6D-161" target="UdqTJDuxFoocJq7VgL6D-163">
          <mxGeometry relative="1" as="geometry" />
        </mxCell>
        <mxCell id="UdqTJDuxFoocJq7VgL6D-161" value="CLEANUP&lt;br&gt;&lt;font style=&quot;font-size: 8px;&quot;&gt;(Delete working directory, etc&lt;/font&gt;)" style="html=1;align=center;verticalAlign=top;rounded=1;absoluteArcSize=1;arcSize=10;dashed=0;shadow=0;" vertex="1" parent="1">
          <mxGeometry x="330" y="1420" width="140" height="40" as="geometry" />
        </mxCell>
        <mxCell id="UdqTJDuxFoocJq7VgL6D-163" value="" style="ellipse;fillColor=#000000;strokeColor=none;shadow=0;" vertex="1" parent="1">
          <mxGeometry x="385" y="1480" width="30" height="30" as="geometry" />
        </mxCell>
        <mxCell id="UdqTJDuxFoocJq7VgL6D-165" value="Session Ended" style="text;html=1;align=center;verticalAlign=middle;resizable=0;points=[];autosize=1;strokeColor=none;fillColor=none;" vertex="1" parent="1">
          <mxGeometry x="408.75" y="1480" width="100" height="30" as="geometry" />
        </mxCell>
        <mxCell id="UdqTJDuxFoocJq7VgL6D-167" value="All Environment Exits &lt;b&gt;must&lt;/b&gt; be attempted, even if an Exit fails." style="shape=note;size=20;whiteSpace=wrap;html=1;fontSize=11;fillColor=#fff2cc;strokeColor=#d6b656;align=left;" vertex="1" parent="1">
          <mxGeometry x="670" y="920" width="80" height="100" as="geometry" />
        </mxCell>
      </root>
    </mxGraphModel>
  </diagram>
</mxfile>
